<?xml version="1.0" encoding="UTF-8" standalone="no"?>
<!-- Created with Inkscape (http://www.inkscape.org/) -->

<svg
   xmlns:dc="http://purl.org/dc/elements/1.1/"
   xmlns:cc="http://creativecommons.org/ns#"
   xmlns:rdf="http://www.w3.org/1999/02/22-rdf-syntax-ns#"
   xmlns:svg="http://www.w3.org/2000/svg"
   xmlns="http://www.w3.org/2000/svg"
   xmlns:sodipodi="http://sodipodi.sourceforge.net/DTD/sodipodi-0.dtd"
   xmlns:inkscape="http://www.inkscape.org/namespaces/inkscape"
   width="160mm"
   height="100mm"
   viewBox="0 0 160 100"
   version="1.1"
   id="svg8"
   inkscape:version="0.92.4 5da689c313, 2019-01-14"
   sodipodi:docname="null.svg">
  <defs
     id="defs2" />
  <sodipodi:namedview
     id="base"
     pagecolor="#ffffff"
     bordercolor="#666666"
     borderopacity="1.0"
     inkscape:pageopacity="0.0"
     inkscape:pageshadow="2"
     inkscape:zoom="1.4"
     inkscape:cx="237.50207"
     inkscape:cy="204.4735"
     inkscape:document-units="mm"
     inkscape:current-layer="layer1"
     showgrid="false"
     inkscape:window-width="1920"
     inkscape:window-height="1011"
     inkscape:window-x="0"
     inkscape:window-y="42"
     inkscape:window-maximized="1" />
  <metadata
     id="metadata5">
    <rdf:RDF>
      <cc:Work
         rdf:about="">
        <dc:format>image/svg+xml</dc:format>
        <dc:type
           rdf:resource="http://purl.org/dc/dcmitype/StillImage" />
        <dc:title></dc:title>
      </cc:Work>
    </rdf:RDF>
  </metadata>
  <g
     inkscape:label="Layer 1"
     inkscape:groupmode="layer"
     id="layer1"
     transform="translate(0,-197)">
    <rect
       style="opacity:1;fill:#7a001f;fill-opacity:1;fill-rule:nonzero;stroke:none;stroke-width:3.91919088;stroke-linecap:round;stroke-linejoin:miter;stroke-miterlimit:4;stroke-dasharray:none;stroke-dashoffset:0;stroke-opacity:1;paint-order:fill markers stroke"
       id="rect815"
       width="20"
       height="99.999985"
       x="40"
       y="197.00002" />
    <rect
       style="opacity:1;fill:#7a001f;fill-opacity:0.78431373;fill-rule:nonzero;stroke:none;stroke-width:3.91919088;stroke-linecap:round;stroke-linejoin:miter;stroke-miterlimit:4;stroke-dasharray:none;stroke-dashoffset:0;stroke-opacity:1;paint-order:fill markers stroke"
       id="rect815-3"
       width="20"
       height="99.999985"
       x="60"
       y="197" />
    <rect
       style="opacity:1;fill:#7a001f;fill-opacity:0.58823529;fill-rule:nonzero;stroke:none;stroke-width:3.91919088;stroke-linecap:round;stroke-linejoin:miter;stroke-miterlimit:4;stroke-dasharray:none;stroke-dashoffset:0;stroke-opacity:1;paint-order:fill markers stroke"
       id="rect815-3-6"
       width="20"
       height="99.999985"
       x="80"
       y="197" />
    <rect
       style="opacity:1;fill:#7a001f;fill-opacity:0.39215686;fill-rule:nonzero;stroke:none;stroke-width:3.91919088;stroke-linecap:round;stroke-linejoin:miter;stroke-miterlimit:4;stroke-dasharray:none;stroke-dashoffset:0;stroke-opacity:1;paint-order:fill markers stroke"
       id="rect815-3-6-7"
       width="20"
       height="99.999985"
       x="100.00002"
       y="197" />
    <rect
       style="opacity:1;fill:#7a001f;fill-opacity:0.19607843;fill-rule:nonzero;stroke:none;stroke-width:3.91919088;stroke-linecap:round;stroke-linejoin:miter;stroke-miterlimit:4;stroke-dasharray:none;stroke-dashoffset:0;stroke-opacity:1;paint-order:fill markers stroke"
       id="rect815-3-6-7-5"
       width="20"
       height="99.999985"
       x="120"
       y="197" />
    <rect
       style="opacity:1;fill:#7a001f;fill-opacity:0.78431373;fill-rule:nonzero;stroke:none;stroke-width:3.91919088;stroke-linecap:round;stroke-linejoin:miter;stroke-miterlimit:4;stroke-dasharray:none;stroke-dashoffset:0;stroke-opacity:1;paint-order:fill markers stroke"
       id="rect815-3-3"
       width="20"
       height="99.999985"
       x="20"
       y="197.00002" />
    <rect
       style="opacity:1;fill:#7a001f;fill-opacity:0.58823529;fill-rule:nonzero;stroke:none;stroke-width:3.91919088;stroke-linecap:round;stroke-linejoin:miter;stroke-miterlimit:4;stroke-dasharray:none;stroke-dashoffset:0;stroke-opacity:1;paint-order:fill markers stroke"
       id="rect815-3-6-5"
       width="20"
       height="99.999985"
       x="0"
       y="197.00002" />
    <rect
       style="opacity:1;fill:#7a001f;fill-opacity:0.03921569;fill-rule:nonzero;stroke:none;stroke-width:3.91919088;stroke-linecap:round;stroke-linejoin:miter;stroke-miterlimit:4;stroke-dasharray:none;stroke-dashoffset:0;stroke-opacity:1;paint-order:fill markers stroke"
       id="rect815-3-6-7-5-2"
       width="20"
       height="99.999985"
       x="140"
       y="197" />
    <g
       id="g981"
       transform="matrix(0,1,1.3333333,0,-159.51785,218.13393)">
      <rect
         y="119.63838"
         x="-21.133928"
         height="120"
         width="20"
         id="rect815-3-1"
         style="opacity:1;fill:#7a001f;fill-opacity:0.78431373;fill-rule:nonzero;stroke:none;stroke-width:4.29325867;stroke-linecap:round;stroke-linejoin:miter;stroke-miterlimit:4;stroke-dasharray:none;stroke-dashoffset:0;stroke-opacity:1;paint-order:fill markers stroke" />
      <rect
         y="119.63838"
         x="-1.1339285"
         height="120"
         width="20"
         id="rect815-3-6-2"
         style="opacity:1;fill:#7a001f;fill-opacity:0.58823529;fill-rule:nonzero;stroke:none;stroke-width:4.29325867;stroke-linecap:round;stroke-linejoin:miter;stroke-miterlimit:4;stroke-dasharray:none;stroke-dashoffset:0;stroke-opacity:1;paint-order:fill markers stroke" />
      <rect
         y="119.63838"
         x="18.866095"
         height="120"
         width="20"
         id="rect815-3-6-7-7"
         style="opacity:1;fill:#7a001f;fill-opacity:0.39215686;fill-rule:nonzero;stroke:none;stroke-width:4.29325867;stroke-linecap:round;stroke-linejoin:miter;stroke-miterlimit:4;stroke-dasharray:none;stroke-dashoffset:0;stroke-opacity:1;paint-order:fill markers stroke" />
      <rect
         y="119.63838"
         x="38.86607"
         height="120"
         width="20"
         id="rect815-3-6-7-5-0"
         style="opacity:1;fill:#7a001f;fill-opacity:0.19607843;fill-rule:nonzero;stroke:none;stroke-width:4.29325867;stroke-linecap:round;stroke-linejoin:miter;stroke-miterlimit:4;stroke-dasharray:none;stroke-dashoffset:0;stroke-opacity:1;paint-order:fill markers stroke" />
      <rect
         y="119.63838"
         x="58.86607"
         height="120"
         width="20"
         id="rect815-3-6-7-5-2-6"
         style="opacity:1;fill:#7a001f;fill-opacity:0.03921569;fill-rule:nonzero;stroke:none;stroke-width:4.29325867;stroke-linecap:round;stroke-linejoin:miter;stroke-miterlimit:4;stroke-dasharray:none;stroke-dashoffset:0;stroke-opacity:1;paint-order:fill markers stroke" />
    </g>
    <g
       aria-label="ohne Bild."
       transform="matrix(0.20353481,0,0,0.20353481,96.901837,246.30643)"
       style="font-style:normal;font-variant:normal;font-weight:normal;font-stretch:normal;font-size:40px;line-height:1.25;font-family:Hack;-inkscape-font-specification:'Hack, Normal';font-variant-ligatures:normal;font-variant-caps:normal;font-variant-numeric:normal;font-feature-settings:normal;text-align:start;letter-spacing:0px;word-spacing:0px;writing-mode:lr-tb;text-anchor:start;fill:#000000;fill-opacity:1;stroke:none"
       id="flowRoot984">
      <path
         d="m 65.642578,224.5 q -4.570312,0 -6.992187,-2.94922 -2.402344,-2.96875 -2.402344,-8.51562 0,-5.56641 2.421875,-8.53516 2.421875,-2.96875 6.953125,-2.96875 4.53125,0 6.933594,2.96875 2.421875,2.94922 2.421875,8.55469 0,5.5664 -2.402344,8.51562 Q 70.173828,224.5 65.642578,224.5 Z m -0.01953,-3.04688 q 2.675781,0 4.101562,-2.1875 1.445313,-2.1875 1.445313,-6.26953 0,-4.0625 -1.445313,-6.23047 -1.425781,-2.1875 -4.101562,-2.1875 -2.695313,0 -4.140625,2.1875 -1.425781,2.16797 -1.425781,6.23047 0,4.08203 1.445312,6.26953 1.445313,2.1875 4.121094,2.1875 z"
         style=""
         id="path1030" />
      <path
         d="m 81.462891,193.54297 h 3.59375 v 11.79687 q 1.972656,-3.80859 6.464843,-3.80859 2.695313,0 4.121094,1.25 1.445313,1.25 1.992188,3.26172 0.546875,2.01172 0.546875,4.33594 v 13.55468 h -3.613282 v -13.55468 q 0,-2.94922 -1.035156,-4.33594 -1.035156,-1.38672 -3.222656,-1.38672 -2.03125,0 -3.183594,1.01562 -1.132812,0.9961 -1.601562,2.57813 -0.46875,1.58203 -0.46875,3.32031 v 12.36328 h -3.59375 z"
         style=""
         id="path1032" />
      <path
         d="m 105.54492,202.05859 h 3.24219 l 0.35156,3.28125 q 1.97266,-3.80859 6.42578,-3.80859 6.69922,0 6.69922,8.84766 v 13.55468 h -3.61328 v -13.55468 q 0,-2.94922 -1.03516,-4.33594 -1.01562,-1.38672 -3.16406,-1.38672 -2.55859,0 -3.94531,1.81641 -1.36719,1.79687 -1.36719,5.09765 v 12.36328 h -3.59375 z"
         style=""
         id="path1034" />
      <path
         d="m 139.06055,224.5 q -5.0586,0 -7.94922,-3.02734 -2.8711,-3.04688 -2.8711,-8.30079 0,-3.26171 1.13282,-5.89843 1.15234,-2.63672 3.39843,-4.17969 2.26563,-1.5625 5.58594,-1.5625 4.375,0 6.77735,2.8125 2.42187,2.79297 2.42187,7.75391 v 1.75781 h -15.56641 v 0.11719 q 0,3.41796 1.79688,5.44921 1.79687,2.03125 5.3125,2.03125 2.03125,0 3.92578,-0.64453 1.91406,-0.64453 3.69141,-1.5625 v 3.57422 q -1.85547,0.76172 -3.76953,1.21094 -1.89454,0.46875 -3.88672,0.46875 z m 4.90234,-13.45703 q 0,-1.81641 -0.54687,-3.28125 -0.54688,-1.46485 -1.75782,-2.32422 -1.1914,-0.85938 -3.16406,-0.85938 -1.99219,0 -3.33984,0.87891 -1.32813,0.85938 -2.08985,2.32422 -0.74218,1.46484 -0.9375,3.26172 z"
         style=""
         id="path1036" />
      <path
         d="m 177.22461,194.77344 h 8.63281 q 4.45313,0 6.89453,1.93359 2.42188,1.93359 2.42188,5.48828 0,1.36719 -0.33203,2.42188 -0.33203,1.03515 -0.9375,1.77734 -0.625,0.74219 -1.58203,1.25 -0.95704,0.48828 -2.26563,0.68359 2.89063,0.42969 4.51172,2.44141 1.62109,2.01172 1.62109,5.17578 0,3.94531 -2.59765,5.95703 -2.61719,2.03125 -7.73438,2.03125 h -8.63281 z m 8.55469,12.03125 q 2.89062,0 4.14062,-1.11328 1.26953,-1.09375 1.26953,-3.45704 0,-2.28515 -1.25,-3.24218 -1.26953,-0.97657 -4.16015,-0.97657 h -4.58985 v 8.78907 z m 0.0781,13.88672 q 3.39844,0 4.90235,-1.21094 1.46484,-1.21094 1.46484,-3.94531 0,-2.85157 -1.54297,-4.19922 -1.5625,-1.32813 -4.82422,-1.32813 h -4.66797 v 10.6836 z"
         style=""
         id="path1038" />
      <path
         d="m 208.2793,198.09375 q -0.58594,0 -0.58594,-0.58594 v -3.3789 q 0,-0.58594 0.58594,-0.58594 h 2.8125 q 0.58593,0 0.58593,0.58594 v 3.3789 q 0,0.58594 -0.58593,0.58594 z m 6.5625,25.99609 q -3.22266,0 -5,-2.07031 -1.75782,-2.08984 -1.75782,-5.85937 v -11.28907 h -4.78515 v -2.8125 h 8.3789 v 14.10157 q 0,2.38281 0.89844,3.63281 0.89844,1.25 2.61719,1.25 h 4.19922 v 3.04687 z"
         style=""
         id="path1040" />
      <path
         d="m 238.18164,224.08984 q -3.22266,0 -5,-2.07031 -1.75781,-2.08984 -1.75781,-5.85937 v -19.80469 h -5.76172 v -2.8125 h 9.35547 v 22.61719 q 0,2.38281 0.89844,3.63281 0.89843,1.25 2.61718,1.25 h 4.19922 v 3.04687 z"
         style=""
         id="path1042" />
      <path
         d="m 257.04883,224.5 q -2.38281,0 -4.00391,-1.01563 -1.62109,-1.01562 -2.59765,-2.71484 -0.95704,-1.69922 -1.38672,-3.75 -0.42969,-2.07031 -0.42969,-4.16016 0,-5.23437 2.28516,-8.28125 2.30468,-3.04687 6.21093,-3.04687 1.91407,0 3.4375,0.82031 1.52344,0.80078 2.42188,2.5 v -11.30859 h 3.59375 v 30.39062 h -3.24219 l -0.35156,-2.7539 q -1.9336,3.32031 -5.9375,3.32031 z m 0.64453,-3.04688 q 1.69922,0 2.73437,-0.80078 1.05469,-0.80078 1.60157,-2.07031 0.5664,-1.28906 0.76172,-2.75391 0.19531,-1.48437 0.19531,-2.83203 0,-1.32812 -0.19531,-2.79297 -0.19532,-1.46484 -0.76172,-2.73437 -0.54688,-1.28906 -1.60157,-2.08984 -1.03515,-0.80079 -2.73437,-0.80079 -1.71875,0 -2.77344,0.80079 -1.03515,0.80078 -1.58203,2.08984 -0.52734,1.26953 -0.72266,2.73437 -0.19531,1.46485 -0.19531,2.79297 0,1.32813 0.19531,2.8125 0.19532,1.46485 0.72266,2.75391 0.54688,1.26953 1.58203,2.08984 1.05469,0.80078 2.77344,0.80078 z"
         style=""
         id="path1044" />
      <path
         d="m 282.2832,224.46094 q -1.32812,0 -2.24609,-0.91797 -0.91797,-0.91797 -0.91797,-2.38281 0,-1.46485 0.91797,-2.38282 0.91797,-0.91797 2.24609,-0.91797 1.32813,0 2.2461,0.91797 0.91797,0.91797 0.91797,2.38282 0,1.46484 -0.91797,2.38281 -0.91797,0.91797 -2.2461,0.91797 z"
         style=""
         id="path1046" />
    </g>
  </g>
</svg>
