<?xml version="1.0" encoding="UTF-8" standalone="no"?>
<!-- Created with Inkscape (http://www.inkscape.org/) -->

<svg
   xmlns:dc="http://purl.org/dc/elements/1.1/"
   xmlns:cc="http://creativecommons.org/ns#"
   xmlns:rdf="http://www.w3.org/1999/02/22-rdf-syntax-ns#"
   xmlns:svg="http://www.w3.org/2000/svg"
   xmlns="http://www.w3.org/2000/svg"
   xmlns:sodipodi="http://sodipodi.sourceforge.net/DTD/sodipodi-0.dtd"
   xmlns:inkscape="http://www.inkscape.org/namespaces/inkscape"
   width="155.65103mm"
   height="176.76503mm"
   viewBox="0 0 155.65103 176.76503"
   version="1.1"
   id="svg8"
   inkscape:version="0.92.4 5da689c313, 2019-01-14"
   sodipodi:docname="icon.svg"
   inkscape:export-filename="/var/run/media/ruhe/data/root/documents/schwarzlicht/profile/drawing.svg.png"
   inkscape:export-xdpi="326.37134"
   inkscape:export-ydpi="326.37134">
  <defs
     id="defs2" />
  <sodipodi:namedview
     id="base"
     pagecolor="#ffffff"
     bordercolor="#666666"
     borderopacity="1.0"
     inkscape:pageopacity="0.0"
     inkscape:pageshadow="2"
     inkscape:zoom="0.70710678"
     inkscape:cx="-174.60755"
     inkscape:cy="386.44972"
     inkscape:document-units="mm"
     inkscape:current-layer="layer3"
     showgrid="false"
     inkscape:snap-bbox="false"
     inkscape:bbox-nodes="false"
     inkscape:bbox-paths="false"
     inkscape:window-width="1920"
     inkscape:window-height="1011"
     inkscape:window-x="0"
     inkscape:window-y="42"
     inkscape:window-maximized="1"
     inkscape:snap-bbox-edge-midpoints="false"
     inkscape:snap-midpoints="true"
     inkscape:snap-intersection-paths="true"
     inkscape:snap-smooth-nodes="true"
     showguides="false"
     fit-margin-top="2"
     fit-margin-left="0"
     fit-margin-right="0"
     fit-margin-bottom="2" />
  <metadata
     id="metadata5">
    <rdf:RDF>
      <cc:Work
         rdf:about="">
        <dc:format>image/svg+xml</dc:format>
        <dc:type
           rdf:resource="http://purl.org/dc/dcmitype/StillImage" />
        <dc:title></dc:title>
      </cc:Work>
    </rdf:RDF>
  </metadata>
  <g
     inkscape:label="Ground"
     inkscape:groupmode="layer"
     id="layer1"
     style="display:inline;opacity:1"
     transform="translate(-24.939072,-102.99083)">
    <rect
       style="fill:#000000;fill-opacity:1;stroke-width:0.26458332"
       id="rect4728"
       width="107.1267"
       height="9.053709"
       x="49.212879"
       y="258.54837"
       ry="2.125"
       rx="2.125" />
    <rect
       ry="2.125"
       y="268.70215"
       x="49.212879"
       height="9.053709"
       width="107.1267"
       id="rect4760"
       style="fill:#7a001f;fill-opacity:1;stroke-width:0.26458332"
       rx="2.125" />
    <g
       id="g4784"
       style="fill:#7a001f;fill-opacity:1"
       transform="translate(-7.4835469,94.66687)">
      <path
         style="fill:#7a001f;fill-opacity:1;stroke-width:2.87692785"
         d="m 418.25391,133.27734 c -110.32323,-8e-5 -203.96883,95.89552 -203.96875,206.21875 v 0 267.15625 c 0,4.44945 3.5818,8.03125 8.03125,8.03125 h 388.82617 c 4.44945,0 8.03125,-3.5818 8.03125,-8.03125 v -267.15625 0 c 8e-5,-110.32323 -90.59669,-206.21883 -200.91992,-206.21875 z"
         id="rect4771"
         transform="scale(0.26458333)"
         inkscape:connector-curvature="0"
         sodipodi:nodetypes="cccssssccc" />
    </g>
  </g>
  <g
     inkscape:groupmode="layer"
     id="layer2"
     inkscape:label="Shine"
     style="display:inline;opacity:1"
     transform="translate(-24.939072,-102.99083)">
    <path
       style="fill:#ffffff;fill-opacity:1;stroke:#000000;stroke-width:0.26458332px;stroke-linecap:butt;stroke-linejoin:miter;stroke-opacity:0"
       d="m 105.21084,149.50998 c 32.31956,7.9045 34.56462,29.82281 34.65816,33.1147 v 42.70298 c -0.13356,1.91735 -1.09748,1.71752 -1.44993,0 -1.87089,-19.46888 -4.11595,-53.27349 -33.16146,-74.32097 -1.37686,-0.91207 -0.82727,-1.58149 -0.0468,-1.49671 z"
       id="path4796-5"
       inkscape:connector-curvature="0"
       sodipodi:nodetypes="ccccccc" />
  </g>
  <g
     inkscape:groupmode="layer"
     id="layer3"
     inkscape:label="Symmetric Spikes"
     style="display:inline"
     transform="translate(-24.939072,-15.990829)">
    <path
       sodipodi:nodetypes="ccccccsc"
       inkscape:connector-curvature="0"
       id="path856"
       d="M 107.01446,108.94304 107.014,125.244 c 0,0.25132 -0.24856,0.49987 -0.5,0.49987 H 99.61 c -0.27959,0 -0.499543,-0.23616 -0.499543,-0.49987 v -16.30096 c 0,-2.18275 1.769453,-3.95221 3.952203,-3.95221 2.18275,-1e-5 3.9518,1.76946 3.9518,3.95221 z"
       style="opacity:1;fill:#000000;fill-opacity:1;fill-rule:evenodd;stroke-width:0.20801121"
       transform="translate(0,-87.000001)" />
    <path
       sodipodi:nodetypes="ccccccsc"
       inkscape:connector-curvature="0"
       id="path5304"
       d="m 28.891282,92.94063 16.30096,4.6e-4 c 0.25132,0 0.49987,0.24856 0.49987,0.5 v 6.904 c 0,0.27959 -0.23616,0.49954 -0.49987,0.49954 h -16.30096 c -2.18275,0 -3.95221,-1.76945 -3.95221,-3.9522 -10e-6,-2.18275 1.76946,-3.9518 3.95221,-3.9518 z"
       style="opacity:1;fill:#000000;fill-opacity:1;fill-rule:evenodd;stroke-width:0.20801121" />
    <path
       style="opacity:1;fill:#000000;fill-opacity:1;fill-rule:evenodd;stroke-width:0.20801121"
       d="m 35.972292,65.370161 15.059948,6.238532 c 0.232189,0.09618 0.3667,0.420932 0.270478,0.653232 l -2.642047,6.378464 c -0.106994,0.258308 -0.409349,0.371141 -0.652985,0.270223 L 32.947563,72.672505 c -2.016598,-0.835302 -2.974227,-3.147204 -2.138925,-5.163802 0.835293,-2.016602 3.147056,-2.973844 5.163654,-2.138542 z"
       id="path5306"
       inkscape:connector-curvature="0"
       sodipodi:nodetypes="ccccccsc" />
    <path
       sodipodi:nodetypes="ccccccsc"
       inkscape:connector-curvature="0"
       id="path5308"
       d="m 53.948331,41.224591 11.526194,11.526844 c 0.17771,0.177711 0.177703,0.52922 -9.2e-5,0.707015 l -4.881865,4.881866 c -0.1977,0.1977 -0.520219,0.186237 -0.70669,-2.34e-4 L 48.359359,46.813563 c -1.543437,-1.543437 -1.543445,-4.045825 -7e-6,-5.589262 1.54343,-1.543444 4.045542,-1.543147 5.588979,2.9e-4 z"
       style="opacity:1;fill:#000000;fill-opacity:1;fill-rule:evenodd;stroke-width:0.20801121" />
    <path
       style="opacity:1;fill:#000000;fill-opacity:1;fill-rule:evenodd;stroke-width:0.20801121"
       d="m 79.332384,25.984209 6.237682,15.060299 c 0.09618,0.232189 -0.03835,0.556939 -0.270648,0.653161 l -6.378464,2.642047 c -0.258307,0.106994 -0.551889,-0.02702 -0.652807,-0.270654 L 72.03004,29.008938 c -0.835302,-2.016598 0.122313,-4.328505 2.138911,-5.163807 2.016595,-0.835311 4.328131,0.12248 5.163433,2.139078 z"
       id="path5310"
       inkscape:connector-curvature="0"
       sodipodi:nodetypes="ccccccsc" />
    <path
       style="opacity:1;fill:#000000;fill-opacity:1;fill-rule:evenodd;stroke-width:0.20801121"
       d="m 176.6379,92.94063 -16.30096,4.6e-4 c -0.25132,0 -0.49987,0.24856 -0.49987,0.5 v 6.904 c 0,0.27959 0.23616,0.49954 0.49987,0.49954 h 16.30096 c 2.18275,0 3.95221,-1.76945 3.95221,-3.9522 1e-5,-2.18275 -1.76946,-3.9518 -3.95221,-3.9518 z"
       id="path5314"
       inkscape:connector-curvature="0"
       sodipodi:nodetypes="ccccccsc" />
    <path
       sodipodi:nodetypes="ccccccsc"
       inkscape:connector-curvature="0"
       id="path5316"
       d="m 169.55689,65.370161 -15.05995,6.238532 c -0.23219,0.09618 -0.3667,0.420932 -0.27048,0.653232 l 2.64205,6.378464 c 0.10699,0.258308 0.40935,0.371141 0.65298,0.270223 l 15.06012,-6.238107 c 2.0166,-0.835302 2.97423,-3.147204 2.13893,-5.163802 -0.83529,-2.016602 -3.14706,-2.973844 -5.16365,-2.138542 z"
       style="opacity:1;fill:#000000;fill-opacity:1;fill-rule:evenodd;stroke-width:0.20801121" />
    <path
       style="opacity:1;fill:#000000;fill-opacity:1;fill-rule:evenodd;stroke-width:0.20801121"
       d="m 151.58085,41.224591 -11.5262,11.526844 c -0.17771,0.177711 -0.1777,0.52922 9e-5,0.707015 l 4.88187,4.881866 c 0.1977,0.1977 0.52022,0.186237 0.70669,-2.34e-4 l 11.52652,-11.526519 c 1.54344,-1.543437 1.54344,-4.045825 1e-5,-5.589262 -1.54343,-1.543444 -4.04555,-1.543147 -5.58898,2.9e-4 z"
       id="path5318"
       inkscape:connector-curvature="0"
       sodipodi:nodetypes="ccccccsc" />
    <path
       sodipodi:nodetypes="ccccccsc"
       inkscape:connector-curvature="0"
       id="path5320"
       d="m 126.19679,25.984209 -6.23768,15.060299 c -0.0962,0.232189 0.0384,0.556939 0.27065,0.653161 l 6.37846,2.642047 c 0.25831,0.106994 0.55189,-0.02702 0.65281,-0.270654 l 6.23811,-15.060124 c 0.8353,-2.016598 -0.12232,-4.328505 -2.13891,-5.163807 -2.0166,-0.835311 -4.32813,0.12248 -5.16344,2.139078 z"
       style="opacity:1;fill:#000000;fill-opacity:1;fill-rule:evenodd;stroke-width:0.20801121" />
  </g>
</svg>
