<?xml version="1.0" encoding="UTF-8" standalone="no"?>
<!-- Created with Inkscape (http://www.inkscape.org/) -->

<svg
   xmlns:dc="http://purl.org/dc/elements/1.1/"
   xmlns:cc="http://creativecommons.org/ns#"
   xmlns:rdf="http://www.w3.org/1999/02/22-rdf-syntax-ns#"
   xmlns:svg="http://www.w3.org/2000/svg"
   xmlns="http://www.w3.org/2000/svg"
   xmlns:sodipodi="http://sodipodi.sourceforge.net/DTD/sodipodi-0.dtd"
   xmlns:inkscape="http://www.inkscape.org/namespaces/inkscape"
   width="284.89801mm"
   height="176.76503mm"
   viewBox="0 0 284.89801 176.76503"
   version="1.1"
   id="svg8"
   inkscape:version="0.92.4 5da689c313, 2019-01-14"
   sodipodi:docname="title.svg"
   inkscape:export-filename="/var/run/media/ruhe/data/root/documents/schwarzlicht/profile/drawing.svg.png"
   inkscape:export-xdpi="326.37134"
   inkscape:export-ydpi="326.37134">
  <defs
     id="defs2" />
  <sodipodi:namedview
     id="base"
     pagecolor="#ffffff"
     bordercolor="#666666"
     borderopacity="1.0"
     inkscape:pageopacity="0.0"
     inkscape:pageshadow="2"
     inkscape:zoom="0.777791"
     inkscape:cx="299.1168"
     inkscape:cy="174.97361"
     inkscape:document-units="mm"
     inkscape:current-layer="layer3"
     showgrid="false"
     inkscape:snap-bbox="true"
     inkscape:bbox-nodes="false"
     inkscape:bbox-paths="false"
     inkscape:window-width="1920"
     inkscape:window-height="1011"
     inkscape:window-x="0"
     inkscape:window-y="42"
     inkscape:window-maximized="1"
     inkscape:snap-bbox-edge-midpoints="false"
     inkscape:snap-midpoints="true"
     inkscape:snap-intersection-paths="true"
     inkscape:snap-smooth-nodes="true"
     showguides="false"
     inkscape:snap-bbox-midpoints="false"
     inkscape:snap-nodes="false"
     fit-margin-top="2"
     fit-margin-left="0"
     fit-margin-right="0"
     fit-margin-bottom="2" />
  <metadata
     id="metadata5">
    <rdf:RDF>
      <cc:Work
         rdf:about="">
        <dc:format>image/svg+xml</dc:format>
        <dc:type
           rdf:resource="http://purl.org/dc/dcmitype/StillImage" />
        <dc:title></dc:title>
      </cc:Work>
    </rdf:RDF>
  </metadata>
  <g
     inkscape:label="Ground"
     inkscape:groupmode="layer"
     id="layer1"
     style="display:inline;opacity:1"
     transform="translate(-24.939072,80.10084)">
    <rect
       style="fill:#000000;fill-opacity:1;stroke-width:0.26458332"
       id="rect4728"
       width="107.1267"
       height="9.053709"
       x="49.212879"
       y="75.456703"
       ry="2.125"
       rx="2.125"
       inkscape:export-filename="/var/run/media/ruhe/data/root/documents/schwarzlicht/profile/svg/logo.png"
       inkscape:export-xdpi="500"
       inkscape:export-ydpi="500" />
    <rect
       ry="2.125"
       y="85.610481"
       x="49.212879"
       height="9.053709"
       width="107.1267"
       id="rect4760"
       style="fill:#7a001f;fill-opacity:1;stroke-width:0.26458332"
       rx="2.125"
       inkscape:export-filename="/var/run/media/ruhe/data/root/documents/schwarzlicht/profile/svg/logo.png"
       inkscape:export-xdpi="500"
       inkscape:export-ydpi="500" />
    <g
       id="g4784"
       style="fill:#7a001f;fill-opacity:1"
       transform="translate(-7.4835469,-88.424796)"
       inkscape:export-filename="/var/run/media/ruhe/data/root/documents/schwarzlicht/profile/svg/logo.png"
       inkscape:export-xdpi="500"
       inkscape:export-ydpi="500">
      <path
         style="fill:#7a001f;fill-opacity:1;stroke-width:2.87692785"
         d="m 418.25391,133.27734 c -110.32323,-8e-5 -203.96883,95.89552 -203.96875,206.21875 v 0 267.15625 c 0,4.44945 3.5818,8.03125 8.03125,8.03125 h 388.82617 c 4.44945,0 8.03125,-3.5818 8.03125,-8.03125 v -267.15625 0 c 8e-5,-110.32323 -90.59669,-206.21883 -200.91992,-206.21875 z"
         id="rect4771"
         transform="scale(0.26458333)"
         inkscape:connector-curvature="0"
         sodipodi:nodetypes="cccssssccc" />
    </g>
  </g>
  <g
     inkscape:groupmode="layer"
     id="layer2"
     inkscape:label="Shine"
     style="display:inline;opacity:1"
     transform="translate(-24.939072,80.10084)">
    <path
       style="fill:#ffffff;fill-opacity:1;stroke:#000000;stroke-width:0.26458332px;stroke-linecap:butt;stroke-linejoin:miter;stroke-opacity:0"
       d="m 105.21084,-33.581686 c 32.31956,7.9045 34.56462,29.8228095 34.65816,33.11469953 V 42.235994 c -0.13356,1.91735 -1.09748,1.71752 -1.44993,0 -1.87089,-19.46888 -4.11595,-53.27349 -33.16146,-74.32097 -1.37686,-0.91207 -0.82727,-1.58149 -0.0468,-1.49671 z"
       id="path4796-5"
       inkscape:connector-curvature="0"
       sodipodi:nodetypes="ccccccc"
       inkscape:export-filename="/var/run/media/ruhe/data/root/documents/schwarzlicht/profile/svg/logo.png"
       inkscape:export-xdpi="500"
       inkscape:export-ydpi="500" />
  </g>
  <g
     inkscape:groupmode="layer"
     id="layer3"
     inkscape:label="Symmetric Spikes"
     style="display:inline"
     transform="translate(-24.939072,167.10084)">
    <path
       sodipodi:nodetypes="ccccccsc"
       inkscape:connector-curvature="0"
       id="path856"
       d="m 107.01446,-161.14863 -4.6e-4,16.30096 c 0,0.25132 -0.24856,0.49987 -0.5,0.49987 H 99.61 c -0.27959,0 -0.499543,-0.23616 -0.499543,-0.49987 v -16.30096 c 0,-2.18275 1.769453,-3.95221 3.952203,-3.95221 2.18275,-1e-5 3.9518,1.76946 3.9518,3.95221 z"
       style="opacity:1;fill:#000000;fill-opacity:1;fill-rule:evenodd;stroke-width:0.20801121"
       inkscape:export-filename="/var/run/media/ruhe/data/root/documents/schwarzlicht/profile/svg/logo.png"
       inkscape:export-xdpi="500"
       inkscape:export-ydpi="500" />
    <path
       sodipodi:nodetypes="ccccccsc"
       inkscape:connector-curvature="0"
       id="path5304"
       d="m 28.891282,-90.151036 16.30096,4.6e-4 c 0.25132,0 0.49987,0.24856 0.49987,0.5 v 6.904 c 0,0.27959 -0.23616,0.49954 -0.49987,0.49954 h -16.30096 c -2.18275,0 -3.95221,-1.76945 -3.95221,-3.9522 -10e-6,-2.18275 1.76946,-3.9518 3.95221,-3.9518 z"
       style="opacity:1;fill:#000000;fill-opacity:1;fill-rule:evenodd;stroke-width:0.20801121"
       inkscape:export-filename="/var/run/media/ruhe/data/root/documents/schwarzlicht/profile/svg/logo.png"
       inkscape:export-xdpi="500"
       inkscape:export-ydpi="500" />
    <path
       style="opacity:1;fill:#000000;fill-opacity:1;fill-rule:evenodd;stroke-width:0.20801121"
       d="m 35.972292,-117.72151 15.059948,6.23854 c 0.232189,0.0962 0.3667,0.42093 0.270478,0.65323 l -2.642047,6.37846 c -0.106994,0.25831 -0.409349,0.37114 -0.652985,0.27023 l -15.060123,-6.23811 c -2.016598,-0.8353 -2.974227,-3.14721 -2.138925,-5.1638 0.835293,-2.01661 3.147056,-2.97385 5.163654,-2.13855 z"
       id="path5306"
       inkscape:connector-curvature="0"
       sodipodi:nodetypes="ccccccsc"
       inkscape:export-filename="/var/run/media/ruhe/data/root/documents/schwarzlicht/profile/svg/logo.png"
       inkscape:export-xdpi="500"
       inkscape:export-ydpi="500" />
    <path
       sodipodi:nodetypes="ccccccsc"
       inkscape:connector-curvature="0"
       id="path5308"
       d="m 53.948331,-141.86708 11.526194,11.52685 c 0.17771,0.17771 0.177703,0.52922 -9.2e-5,0.70701 l -4.881865,4.88187 c -0.1977,0.1977 -0.520219,0.18624 -0.70669,-2.3e-4 L 48.359359,-136.2781 c -1.543437,-1.54344 -1.543445,-4.04583 -7e-6,-5.58927 1.54343,-1.54344 4.045542,-1.54314 5.588979,2.9e-4 z"
       style="opacity:1;fill:#000000;fill-opacity:1;fill-rule:evenodd;stroke-width:0.20801121"
       inkscape:export-filename="/var/run/media/ruhe/data/root/documents/schwarzlicht/profile/svg/logo.png"
       inkscape:export-xdpi="500"
       inkscape:export-ydpi="500" />
    <path
       style="opacity:1;fill:#000000;fill-opacity:1;fill-rule:evenodd;stroke-width:0.20801121"
       d="m 79.332384,-157.10746 6.237682,15.0603 c 0.09618,0.23219 -0.03835,0.55694 -0.270648,0.65316 l -6.378464,2.64205 c -0.258307,0.10699 -0.551889,-0.027 -0.652807,-0.27065 l -6.238107,-15.06013 c -0.835302,-2.0166 0.122313,-4.3285 2.138911,-5.16381 2.016595,-0.83531 4.328131,0.12248 5.163433,2.13908 z"
       id="path5310"
       inkscape:connector-curvature="0"
       sodipodi:nodetypes="ccccccsc"
       inkscape:export-filename="/var/run/media/ruhe/data/root/documents/schwarzlicht/profile/svg/logo.png"
       inkscape:export-xdpi="500"
       inkscape:export-ydpi="500" />
    <path
       style="opacity:1;fill:#000000;fill-opacity:1;fill-rule:evenodd;stroke-width:0.20801121"
       d="m 176.6379,-90.151036 -16.30096,4.6e-4 c -0.25132,0 -0.49987,0.24856 -0.49987,0.5 v 6.904 c 0,0.27959 0.23616,0.49954 0.49987,0.49954 h 16.30096 c 2.18275,0 3.95221,-1.76945 3.95221,-3.9522 1e-5,-2.18275 -1.76946,-3.9518 -3.95221,-3.9518 z"
       id="path5314"
       inkscape:connector-curvature="0"
       sodipodi:nodetypes="ccccccsc"
       inkscape:export-filename="/var/run/media/ruhe/data/root/documents/schwarzlicht/profile/svg/logo.png"
       inkscape:export-xdpi="500"
       inkscape:export-ydpi="500" />
    <path
       sodipodi:nodetypes="ccccccsc"
       inkscape:connector-curvature="0"
       id="path5316"
       d="m 169.55689,-117.72151 -15.05995,6.23854 c -0.23219,0.0962 -0.3667,0.42093 -0.27048,0.65323 l 2.64205,6.37846 c 0.10699,0.25831 0.40935,0.37114 0.65298,0.27023 l 15.06012,-6.23811 c 2.0166,-0.8353 2.97423,-3.14721 2.13893,-5.1638 -0.83529,-2.01661 -3.14706,-2.97385 -5.16365,-2.13855 z"
       style="opacity:1;fill:#000000;fill-opacity:1;fill-rule:evenodd;stroke-width:0.20801121"
       inkscape:export-filename="/var/run/media/ruhe/data/root/documents/schwarzlicht/profile/svg/logo.png"
       inkscape:export-xdpi="500"
       inkscape:export-ydpi="500" />
    <path
       style="opacity:1;fill:#000000;fill-opacity:1;fill-rule:evenodd;stroke-width:0.20801121"
       d="m 151.58085,-141.86708 -11.5262,11.52685 c -0.17771,0.17771 -0.1777,0.52922 9e-5,0.70701 l 4.88187,4.88187 c 0.1977,0.1977 0.52022,0.18624 0.70669,-2.3e-4 l 11.52652,-11.52652 c 1.54344,-1.54344 1.54344,-4.04583 1e-5,-5.58927 -1.54343,-1.54344 -4.04555,-1.54314 -5.58898,2.9e-4 z"
       id="path5318"
       inkscape:connector-curvature="0"
       sodipodi:nodetypes="ccccccsc"
       inkscape:export-filename="/var/run/media/ruhe/data/root/documents/schwarzlicht/profile/svg/logo.png"
       inkscape:export-xdpi="500"
       inkscape:export-ydpi="500" />
    <path
       sodipodi:nodetypes="ccccccsc"
       inkscape:connector-curvature="0"
       id="path5320"
       d="m 126.19679,-157.10746 -6.23768,15.0603 c -0.0962,0.23219 0.0384,0.55694 0.27065,0.65316 l 6.37846,2.64205 c 0.25831,0.10699 0.55189,-0.027 0.65281,-0.27065 l 6.23811,-15.06013 c 0.8353,-2.0166 -0.12232,-4.3285 -2.13891,-5.16381 -2.0166,-0.83531 -4.32813,0.12248 -5.16344,2.13908 z"
       style="opacity:1;fill:#000000;fill-opacity:1;fill-rule:evenodd;stroke-width:0.20801121"
       inkscape:export-filename="/var/run/media/ruhe/data/root/documents/schwarzlicht/profile/svg/logo.png"
       inkscape:export-xdpi="500"
       inkscape:export-ydpi="500" />
  </g>
  <g
     inkscape:groupmode="layer"
     id="layer4"
     inkscape:label="Text"
     style="display:none"
     transform="translate(-24.939072,167.10084)">
    <flowRoot
       xml:space="preserve"
       id="flowRoot831"
       style="font-style:normal;font-variant:normal;font-weight:bold;font-stretch:semi-condensed;font-size:55.1698494px;line-height:1.25;font-family:'DejaVu Sans';-inkscape-font-specification:'DejaVu Sans, Bold Semi-Condensed';font-variant-ligatures:normal;font-variant-caps:normal;font-variant-numeric:normal;font-feature-settings:normal;text-align:start;letter-spacing:0px;word-spacing:0px;writing-mode:lr-tb;text-anchor:start;display:inline;opacity:1;fill:#000000;fill-opacity:1;stroke:none"
       transform="matrix(0.76732733,0,0,0.76732733,-416.75558,-26.312998)"><flowRegion
         id="flowRegion833"
         style="font-style:normal;font-variant:normal;font-weight:bold;font-stretch:semi-condensed;font-size:55.1698494px;font-family:'DejaVu Sans';-inkscape-font-specification:'DejaVu Sans, Bold Semi-Condensed';font-variant-ligatures:normal;font-variant-caps:normal;font-variant-numeric:normal;font-feature-settings:normal;text-align:start;writing-mode:lr-tb;text-anchor:start"><rect
           id="rect835"
           width="287.33115"
           height="67.741234"
           x="804"
           y="111.70081"
           style="font-style:normal;font-variant:normal;font-weight:bold;font-stretch:semi-condensed;font-size:55.1698494px;font-family:'DejaVu Sans';-inkscape-font-specification:'DejaVu Sans, Bold Semi-Condensed';font-variant-ligatures:normal;font-variant-caps:normal;font-variant-numeric:normal;font-feature-settings:normal;text-align:start;writing-mode:lr-tb;text-anchor:start" /></flowRegion><flowPara
         id="flowPara849"
         style="font-style:normal;font-variant:normal;font-weight:bold;font-stretch:semi-condensed;font-size:55.1698494px;font-family:'DejaVu Sans';-inkscape-font-specification:'DejaVu Sans, Bold Semi-Condensed';font-variant-ligatures:normal;font-variant-caps:normal;font-variant-numeric:normal;font-feature-settings:normal;text-align:start;writing-mode:lr-tb;direction:ltr;text-anchor:start">SCHWARZ</flowPara></flowRoot>    <flowRoot
       xml:space="preserve"
       id="flowRoot831-8"
       style="font-style:normal;font-variant:normal;font-weight:bold;font-stretch:semi-condensed;font-size:55.1698494px;line-height:1.25;font-family:'DejaVu Sans';-inkscape-font-specification:'DejaVu Sans, Bold Semi-Condensed';font-variant-ligatures:normal;font-variant-caps:normal;font-variant-numeric:normal;font-feature-settings:normal;text-align:start;letter-spacing:0px;word-spacing:0px;writing-mode:lr-tb;text-anchor:start;display:inline;opacity:1;fill:#000000;fill-opacity:1;stroke:none"
       transform="matrix(0.76732733,0,0,0.76732733,-417.52039,5.7057192)"><flowRegion
         id="flowRegion833-7"
         style="font-style:normal;font-variant:normal;font-weight:bold;font-stretch:semi-condensed;font-size:55.1698494px;font-family:'DejaVu Sans';-inkscape-font-specification:'DejaVu Sans, Bold Semi-Condensed';font-variant-ligatures:normal;font-variant-caps:normal;font-variant-numeric:normal;font-feature-settings:normal;text-align:start;writing-mode:lr-tb;text-anchor:start"><rect
           id="rect835-9"
           width="188.02551"
           height="77.395935"
           x="804"
           y="111.70081"
           style="font-style:normal;font-variant:normal;font-weight:bold;font-stretch:semi-condensed;font-size:55.1698494px;font-family:'DejaVu Sans';-inkscape-font-specification:'DejaVu Sans, Bold Semi-Condensed';font-variant-ligatures:normal;font-variant-caps:normal;font-variant-numeric:normal;font-feature-settings:normal;text-align:start;writing-mode:lr-tb;text-anchor:start" /></flowRegion><flowPara
         id="flowPara849-6"
         style="font-style:normal;font-variant:normal;font-weight:bold;font-stretch:semi-condensed;font-size:55.1698494px;font-family:'DejaVu Sans';-inkscape-font-specification:'DejaVu Sans, Bold Semi-Condensed';font-variant-ligatures:normal;font-variant-caps:normal;font-variant-numeric:normal;font-feature-settings:normal;text-align:start;writing-mode:lr-tb;direction:ltr;text-anchor:start">LICHT</flowPara></flowRoot>    <flowRoot
       xml:space="preserve"
       id="flowRoot831-8-8"
       style="font-style:normal;font-variant:normal;font-weight:200;font-stretch:normal;font-size:55.1698494px;line-height:1.25;font-family:'DejaVu Sans';-inkscape-font-specification:'DejaVu Sans, Ultra-Light';font-variant-ligatures:normal;font-variant-caps:normal;font-variant-numeric:normal;font-feature-settings:normal;text-align:start;letter-spacing:0px;word-spacing:0px;writing-mode:lr-tb;text-anchor:start;display:inline;opacity:1;fill:#000000;fill-opacity:1;stroke:none"
       transform="matrix(0.76732733,0,0,0.76732733,-416.96228,44.959137)"><flowRegion
         id="flowRegion833-7-7"
         style="font-style:normal;font-variant:normal;font-weight:200;font-stretch:normal;font-size:55.1698494px;font-family:'DejaVu Sans';-inkscape-font-specification:'DejaVu Sans, Ultra-Light';font-variant-ligatures:normal;font-variant-caps:normal;font-variant-numeric:normal;font-feature-settings:normal;text-align:start;writing-mode:lr-tb;text-anchor:start"><rect
           id="rect835-9-0"
           width="339.05292"
           height="71.878975"
           x="804"
           y="111.70081"
           style="font-style:normal;font-variant:normal;font-weight:200;font-stretch:normal;font-size:55.1698494px;font-family:'DejaVu Sans';-inkscape-font-specification:'DejaVu Sans, Ultra-Light';font-variant-ligatures:normal;font-variant-caps:normal;font-variant-numeric:normal;font-feature-settings:normal;text-align:start;writing-mode:lr-tb;text-anchor:start" /></flowRegion><flowPara
         id="flowPara849-6-8"
         style="font-style:normal;font-variant:normal;font-weight:200;font-stretch:normal;font-size:55.1698494px;font-family:'DejaVu Sans';-inkscape-font-specification:'DejaVu Sans, Ultra-Light';font-variant-ligatures:normal;font-variant-caps:normal;font-variant-numeric:normal;font-feature-settings:normal;text-align:start;writing-mode:lr-tb;direction:ltr;text-anchor:start">WÜRZBURG</flowPara></flowRoot>  </g>
  <g
     inkscape:groupmode="layer"
     id="layer5"
     inkscape:label="TextPath"
     transform="translate(-24.939072,167.10084)">
    <g
       aria-label="SCHWARZ"
       transform="matrix(0.54973341,0,0,0.54973341,-284.10337,-144.21312)"
       style="font-style:normal;font-variant:normal;font-weight:bold;font-stretch:semi-condensed;font-size:55.1698494px;line-height:1.25;font-family:'DejaVu Sans';-inkscape-font-specification:'DejaVu Sans, Bold Semi-Condensed';font-variant-ligatures:normal;font-variant-caps:normal;font-variant-numeric:normal;font-feature-settings:normal;text-align:start;letter-spacing:0px;word-spacing:0px;writing-mode:lr-tb;text-anchor:start;display:inline;opacity:1;fill:#000000;fill-opacity:1;stroke:none"
       id="flowRoot831-7"
       inkscape:export-filename="/var/run/media/ruhe/data/root/documents/schwarzlicht/profile/svg/logo.png"
       inkscape:export-xdpi="500"
       inkscape:export-ydpi="500">
      <path
         d="m 833.74,121.56063 v 8.51253 q -2.96323,-1.48161 -5.8187,-2.23588 -2.82853,-0.75428 -5.36074,-0.75428 -3.34036,0 -4.95667,1.02366 -1.58936,1.02366 -1.58936,3.17873 0,1.61631 1.07753,2.53221 1.07754,0.88897 3.93301,1.53549 l 3.95995,0.88897 q 6.06114,1.34692 8.59335,4.09463 2.53221,2.74772 2.53221,7.81214 0,6.65379 -3.55587,9.91333 -3.52893,3.23261 -10.82924,3.23261 -3.44812,0 -6.92317,-0.72734 -3.44812,-0.72733 -6.92317,-2.15507 v -8.75498 q 3.47505,2.04732 6.70766,3.09792 3.23261,1.02366 6.24971,1.02366 3.04404,0 4.66035,-1.13142 1.64324,-1.13141 1.64324,-3.2326 0,-1.88569 -1.10448,-2.90935 -1.10447,-1.02366 -4.41789,-1.83181 l -3.60975,-0.88897 q -5.41462,-1.29304 -7.94683,-4.12158 -2.50527,-2.82853 -2.50527,-7.62356 0,-6.00727 3.50199,-9.23988 3.50199,-3.2326 10.02109,-3.2326 2.99016,0 6.14195,0.51183 3.1518,0.48489 6.5191,1.48161 z"
         style="font-style:normal;font-variant:normal;font-weight:bold;font-stretch:semi-condensed;font-size:55.1698494px;font-family:'DejaVu Sans';-inkscape-font-specification:'DejaVu Sans, Bold Semi-Condensed';font-variant-ligatures:normal;font-variant-caps:normal;font-variant-numeric:normal;font-feature-settings:normal;text-align:start;writing-mode:lr-tb;direction:ltr;text-anchor:start"
         id="path1590"
         inkscape:connector-curvature="0" />
      <path
         d="m 873.01619,158.30461 q -2.58609,1.48161 -5.38768,2.23589 -2.77466,0.75427 -5.79176,0.75427 -9.0513,0 -14.33123,-5.60319 -5.27993,-5.63012 -5.27993,-15.24713 0,-9.64395 5.27993,-15.24714 5.27993,-5.63012 14.33123,-5.63012 3.0171,0 5.79176,0.75427 2.80159,0.75428 5.38768,2.23589 v 8.32396 q -2.61303,-1.9665 -5.14524,-2.8824 -2.50527,-0.91591 -5.27992,-0.91591 -5.01055,0 -7.86602,3.55587 -2.85547,3.55587 -2.85547,9.80558 0,6.22277 2.85547,9.77864 2.85547,3.55587 7.86602,3.55587 2.77465,0 5.27992,-0.91591 2.53221,-0.9159 5.14524,-2.88241 z"
         style="font-style:normal;font-variant:normal;font-weight:bold;font-stretch:semi-condensed;font-size:55.1698494px;font-family:'DejaVu Sans';-inkscape-font-specification:'DejaVu Sans, Bold Semi-Condensed';font-variant-ligatures:normal;font-variant-caps:normal;font-variant-numeric:normal;font-feature-settings:normal;text-align:start;writing-mode:lr-tb;direction:ltr;text-anchor:start"
         id="path1592"
         inkscape:connector-curvature="0" />
      <path
         d="m 880.72057,120.29452 h 9.34763 v 15.32795 h 13.76552 v -15.32795 h 9.32069 v 40.21904 h -9.32069 V 143.46155 H 890.0682 v 17.05201 h -9.34763 z"
         style="font-style:normal;font-variant:normal;font-weight:bold;font-stretch:semi-condensed;font-size:55.1698494px;font-family:'DejaVu Sans';-inkscape-font-specification:'DejaVu Sans, Bold Semi-Condensed';font-variant-ligatures:normal;font-variant-caps:normal;font-variant-numeric:normal;font-feature-settings:normal;text-align:start;writing-mode:lr-tb;direction:ltr;text-anchor:start"
         id="path1594"
         inkscape:connector-curvature="0" />
      <path
         d="m 919.18861,120.29452 h 8.94355 l 6.24971,29.22817 6.22277,-29.22817 h 8.99743 l 6.19583,29.22817 6.24971,-29.22817 h 8.88968 l -8.53948,40.21904 h -10.77536 l -6.57297,-30.57509 -6.49216,30.57509 h -10.77536 z"
         style="font-style:normal;font-variant:normal;font-weight:bold;font-stretch:semi-condensed;font-size:55.1698494px;font-family:'DejaVu Sans';-inkscape-font-specification:'DejaVu Sans, Bold Semi-Condensed';font-variant-ligatures:normal;font-variant-caps:normal;font-variant-numeric:normal;font-feature-settings:normal;text-align:start;writing-mode:lr-tb;direction:ltr;text-anchor:start"
         id="path1596"
         inkscape:connector-curvature="0" />
      <path
         d="m 996.52877,153.18631 h -14.60061 l -2.3167,7.32725 h -9.37457 l 13.41533,-40.21904 h 11.12556 l 13.41532,40.21904 h -9.4015 z m -12.28391,-7.46194 h 9.91333 l -4.92972,-16.00141 z"
         style="font-style:normal;font-variant:normal;font-weight:bold;font-stretch:semi-condensed;font-size:55.1698494px;font-family:'DejaVu Sans';-inkscape-font-specification:'DejaVu Sans, Bold Semi-Condensed';font-variant-ligatures:normal;font-variant-caps:normal;font-variant-numeric:normal;font-feature-settings:normal;text-align:start;writing-mode:lr-tb;direction:ltr;text-anchor:start"
         id="path1598"
         inkscape:connector-curvature="0" />
      <path
         d="m 1026.2418,138.12775 q 2.9094,0 4.1755,-1.21223 1.293,-1.21223 1.293,-3.98689 0,-2.74771 -1.293,-3.933 -1.2661,-1.18529 -4.1755,-1.18529 h -3.933 v 10.31741 z m -3.933,7.16561 v 15.2202 h -9.3476 v -40.21904 h 14.2504 q 7.1656,0 10.479,2.6669 3.3404,2.66691 3.3404,8.43172 0,3.98689 -1.7241,6.54604 -1.724,2.55914 -5.226,3.77137 1.9126,0.48489 3.4212,2.20895 1.5355,1.69712 3.071,5.17218 l 5.0644,11.42188 h -9.9403 l -4.391,-9.99415 q -1.3469,-3.0171 -2.7207,-4.12158 -1.3739,-1.10447 -3.6367,-1.10447 z"
         style="font-style:normal;font-variant:normal;font-weight:bold;font-stretch:semi-condensed;font-size:55.1698494px;font-family:'DejaVu Sans';-inkscape-font-specification:'DejaVu Sans, Bold Semi-Condensed';font-variant-ligatures:normal;font-variant-caps:normal;font-variant-numeric:normal;font-feature-settings:normal;text-align:start;writing-mode:lr-tb;direction:ltr;text-anchor:start"
         id="path1600"
         inkscape:connector-curvature="0" />
      <path
         d="m 1049.4358,120.29452 h 30.4134 v 6.27665 l -19.4226,26.10331 h 19.9883 v 7.83908 h -31.5448 v -6.27665 l 19.4226,-26.10331 h -18.8569 z"
         style="font-style:normal;font-variant:normal;font-weight:bold;font-stretch:semi-condensed;font-size:55.1698494px;font-family:'DejaVu Sans';-inkscape-font-specification:'DejaVu Sans, Bold Semi-Condensed';font-variant-ligatures:normal;font-variant-caps:normal;font-variant-numeric:normal;font-feature-settings:normal;text-align:start;writing-mode:lr-tb;direction:ltr;text-anchor:start"
         id="path1602"
         inkscape:connector-curvature="0" />
    </g>
    <g
       aria-label="LICHT"
       transform="matrix(0.95493892,0,0,0.95493892,-612.28123,-167.72265)"
       style="font-style:normal;font-variant:normal;font-weight:bold;font-stretch:semi-condensed;font-size:55.1698494px;line-height:1.25;font-family:'DejaVu Sans';-inkscape-font-specification:'DejaVu Sans, Bold Semi-Condensed';font-variant-ligatures:normal;font-variant-caps:normal;font-variant-numeric:normal;font-feature-settings:normal;text-align:start;letter-spacing:0px;word-spacing:0px;writing-mode:lr-tb;text-anchor:start;display:inline;opacity:1;fill:#000000;fill-opacity:1;stroke:none"
       id="flowRoot831-8-4"
       inkscape:export-filename="/var/run/media/ruhe/data/root/documents/schwarzlicht/profile/svg/logo.png"
       inkscape:export-xdpi="500"
       inkscape:export-ydpi="500">
      <path
         d="m 808.55259,120.29452 h 9.34763 v 32.37996 h 16.37855 v 7.83908 h -25.72618 z"
         style="font-style:normal;font-variant:normal;font-weight:bold;font-stretch:semi-condensed;font-size:55.1698494px;font-family:'DejaVu Sans';-inkscape-font-specification:'DejaVu Sans, Bold Semi-Condensed';font-variant-ligatures:normal;font-variant-caps:normal;font-variant-numeric:normal;font-feature-settings:normal;text-align:start;writing-mode:lr-tb;direction:ltr;text-anchor:start"
         id="path1605"
         inkscape:connector-curvature="0" />
      <path
         d="m 840.17827,120.29452 h 9.34763 v 40.21904 h -9.34763 z"
         style="font-style:normal;font-variant:normal;font-weight:bold;font-stretch:semi-condensed;font-size:55.1698494px;font-family:'DejaVu Sans';-inkscape-font-specification:'DejaVu Sans, Bold Semi-Condensed';font-variant-ligatures:normal;font-variant-caps:normal;font-variant-numeric:normal;font-feature-settings:normal;text-align:start;writing-mode:lr-tb;direction:ltr;text-anchor:start"
         id="path1607"
         inkscape:connector-curvature="0" />
      <path
         d="m 887.34742,158.30461 q -2.58609,1.48161 -5.38768,2.23589 -2.77466,0.75427 -5.79176,0.75427 -9.0513,0 -14.33123,-5.60319 -5.27993,-5.63012 -5.27993,-15.24713 0,-9.64395 5.27993,-15.24714 5.27993,-5.63012 14.33123,-5.63012 3.0171,0 5.79176,0.75427 2.80159,0.75428 5.38768,2.23589 v 8.32396 q -2.61303,-1.9665 -5.14524,-2.8824 -2.50527,-0.91591 -5.27992,-0.91591 -5.01055,0 -7.86602,3.55587 -2.85547,3.55587 -2.85547,9.80558 0,6.22277 2.85547,9.77864 2.85547,3.55587 7.86602,3.55587 2.77465,0 5.27992,-0.91591 2.53221,-0.9159 5.14524,-2.88241 z"
         style="font-style:normal;font-variant:normal;font-weight:bold;font-stretch:semi-condensed;font-size:55.1698494px;font-family:'DejaVu Sans';-inkscape-font-specification:'DejaVu Sans, Bold Semi-Condensed';font-variant-ligatures:normal;font-variant-caps:normal;font-variant-numeric:normal;font-feature-settings:normal;text-align:start;writing-mode:lr-tb;direction:ltr;text-anchor:start"
         id="path1609"
         inkscape:connector-curvature="0" />
      <path
         d="m 895.0518,120.29452 h 9.34762 v 15.32795 h 13.76553 v -15.32795 h 9.32068 v 40.21904 h -9.32068 v -17.05201 h -13.76553 v 17.05201 h -9.34762 z"
         style="font-style:normal;font-variant:normal;font-weight:bold;font-stretch:semi-condensed;font-size:55.1698494px;font-family:'DejaVu Sans';-inkscape-font-specification:'DejaVu Sans, Bold Semi-Condensed';font-variant-ligatures:normal;font-variant-caps:normal;font-variant-numeric:normal;font-feature-settings:normal;text-align:start;writing-mode:lr-tb;direction:ltr;text-anchor:start"
         id="path1611"
         inkscape:connector-curvature="0" />
      <path
         d="m 932.28067,120.29452 h 33.34974 v 7.83908 h -11.98759 v 32.37996 H 944.2952 V 128.1336 h -12.01453 z"
         style="font-style:normal;font-variant:normal;font-weight:bold;font-stretch:semi-condensed;font-size:55.1698494px;font-family:'DejaVu Sans';-inkscape-font-specification:'DejaVu Sans, Bold Semi-Condensed';font-variant-ligatures:normal;font-variant-caps:normal;font-variant-numeric:normal;font-feature-settings:normal;text-align:start;writing-mode:lr-tb;direction:ltr;text-anchor:start"
         id="path1613"
         inkscape:connector-curvature="0" />
    </g>
    <g
       aria-label="WÜRZBURG"
       transform="matrix(0.47029118,0,0,0.47029118,-220.07574,-68.673884)"
       style="font-style:normal;font-variant:normal;font-weight:200;font-stretch:normal;font-size:55.1698494px;line-height:1.25;font-family:'DejaVu Sans';-inkscape-font-specification:'DejaVu Sans, Ultra-Light';font-variant-ligatures:normal;font-variant-caps:normal;font-variant-numeric:normal;font-feature-settings:normal;text-align:start;letter-spacing:0px;word-spacing:0px;writing-mode:lr-tb;text-anchor:start;display:inline;opacity:1;fill:#000000;fill-opacity:1;stroke:none"
       id="flowRoot831-8-8-8"
       inkscape:export-filename="/var/run/media/ruhe/data/root/documents/schwarzlicht/profile/svg/logo.png"
       inkscape:export-xdpi="500"
       inkscape:export-ydpi="500">
      <path
         d="m 807.82525,120.29452 h 2.77466 l 9.18599,37.04031 9.15906,-37.04031 h 3.39424 l 9.10518,36.8248 9.15906,-36.8248 h 2.77465 l -9.99414,40.21904 h -3.8522 l -8.88967,-35.82808 -8.86273,35.82808 h -3.98689 z"
         style="font-style:normal;font-variant:normal;font-weight:200;font-stretch:normal;font-size:55.1698494px;font-family:'DejaVu Sans';-inkscape-font-specification:'DejaVu Sans, Ultra-Light';font-variant-ligatures:normal;font-variant-caps:normal;font-variant-numeric:normal;font-feature-settings:normal;text-align:start;writing-mode:lr-tb;direction:ltr;text-anchor:start"
         inkscape:connector-curvature="0"
         id="path1616" />
      <path
         d="m 864.71916,120.29452 2.69384,-1.8e-4 v 24.43331 c 0,5.10034 0.89795,8.77294 2.69384,11.01781 1.77793,2.22691 4.66034,3.34036 8.64723,3.34036 3.96893,0 6.84236,-1.11345 8.62029,-3.34036 1.79589,-2.24487 2.69384,-5.91747 2.69384,-11.01781 v -24.43313 h 2.69384 v 25.10659 c 0,5.24401 -1.18529,9.20396 -3.55587,11.87984 -2.35262,2.67588 -5.83665,4.01382 -10.4521,4.01382 -4.63341,0 -8.12642,-1.33794 -10.47904,-4.01382 -2.37058,-2.67588 -3.55587,-6.63583 -3.55587,-11.87984 z m 16.56712,-1.8e-4 h 2.47833 v 3.25936 h -2.47833 z m -7.59663,0 h 2.53221 v 3.25936 h -2.53221 z"
         style="font-style:normal;font-variant:normal;font-weight:200;font-stretch:normal;font-size:55.1698494px;font-family:'DejaVu Sans';-inkscape-font-specification:'DejaVu Sans, Ultra-Light';font-variant-ligatures:normal;font-variant-caps:normal;font-variant-numeric:normal;font-feature-settings:normal;text-align:start;writing-mode:lr-tb;direction:ltr;text-anchor:start"
         inkscape:connector-curvature="0"
         id="path1618"
         sodipodi:nodetypes="ccscscsccscscsccccccccccc" />
      <path
         d="m 922.28653,141.65668 q 1.67018,0.59264 3.2326,2.53221 1.10448,1.40079 3.1518,5.3338 l 5.63012,10.99087 h -2.8824 l -5.73788,-11.04475 q -2.23589,-4.33708 -4.28321,-5.73788 -2.1012,-1.40079 -5.684,-1.40079 h -7.30031 v 18.18342 h -2.69384 v -40.21904 h 10.91005 q 6.1689,0 9.21294,2.88241 3.04404,2.88241 3.04404,8.70111 0,3.74443 -1.58937,6.30358 -1.50855,2.50527 -5.01054,3.47506 z m -13.87328,-19.15321 v 17.59078 h 8.88967 q 4.31015,0 6.5191,-2.23589 2.20894,-2.23589 2.20894,-6.59991 0,-4.33708 -2.20894,-6.54603 -2.20895,-2.20895 -6.5191,-2.20895 z"
         style="font-style:normal;font-variant:normal;font-weight:200;font-stretch:normal;font-size:55.1698494px;font-family:'DejaVu Sans';-inkscape-font-specification:'DejaVu Sans, Ultra-Light';font-variant-ligatures:normal;font-variant-caps:normal;font-variant-numeric:normal;font-feature-settings:normal;text-align:start;writing-mode:lr-tb;direction:ltr;text-anchor:start"
         inkscape:connector-curvature="0"
         id="path1620" />
      <path
         d="m 940.3622,120.29452 h 31.59875 v 2.18201 l -28.98573,35.82808 h 29.60531 v 2.20895 h -32.83791 v -2.18201 l 28.93184,-35.80114 H 940.3622 Z"
         style="font-style:normal;font-variant:normal;font-weight:200;font-stretch:normal;font-size:55.1698494px;font-family:'DejaVu Sans';-inkscape-font-specification:'DejaVu Sans, Ultra-Light';font-variant-ligatures:normal;font-variant-caps:normal;font-variant-numeric:normal;font-feature-settings:normal;text-align:start;writing-mode:lr-tb;direction:ltr;text-anchor:start"
         inkscape:connector-curvature="0"
         id="path1622" />
      <path
         d="m 984.54117,140.47139 v 17.86016 h 10.1019 q 5.1183,0 7.59663,-2.20895 2.4783,-2.18201 2.4783,-6.7346 0,-4.57953 -2.4783,-6.7346 -2.47833,-2.18201 -7.59663,-2.18201 z m 0,-17.96792 v 15.75897 h 9.42844 q 4.63341,0 6.89619,-1.93957 2.2629,-1.93956 2.2629,-5.98032 0,-3.95995 -2.2629,-5.87258 -2.26278,-1.9665 -6.89619,-1.9665 z m -2.69384,-2.20895 h 12.52636 q 5.52237,0 8.51251,2.58609 2.9902,2.58609 2.9902,7.35418 0,3.93301 -1.5355,5.87258 -1.6971,2.15507 -4.0946,2.93628 3.475,0.91591 5.226,3.3673 1.9665,2.74772 1.9665,6.84236 0,5.38768 -3.2595,8.32396 -3.2596,2.93629 -9.26684,2.93629 h -13.06513 z"
         style="font-style:normal;font-variant:normal;font-weight:200;font-stretch:normal;font-size:55.1698494px;font-family:'DejaVu Sans';-inkscape-font-specification:'DejaVu Sans, Ultra-Light';font-variant-ligatures:normal;font-variant-caps:normal;font-variant-numeric:normal;font-feature-settings:normal;text-align:start;writing-mode:lr-tb;direction:ltr;text-anchor:start"
         inkscape:connector-curvature="0"
         id="path1624" />
      <path
         d="m 1017.3522,120.29452 h 2.6938 v 24.43313 q 0,7.65051 2.6938,11.01781 2.6669,3.34036 8.6473,3.34036 5.9533,0 8.6202,-3.34036 2.6939,-3.3673 2.6939,-11.01781 v -24.43313 h 2.6938 v 25.10659 q 0,7.86602 -3.5558,11.87984 -3.529,4.01382 -10.4521,4.01382 -6.9501,0 -10.4791,-4.01382 -3.5558,-4.01382 -3.5558,-11.87984 z"
         style="font-style:normal;font-variant:normal;font-weight:200;font-stretch:normal;font-size:55.1698494px;font-family:'DejaVu Sans';-inkscape-font-specification:'DejaVu Sans, Ultra-Light';font-variant-ligatures:normal;font-variant-caps:normal;font-variant-numeric:normal;font-feature-settings:normal;text-align:start;writing-mode:lr-tb;direction:ltr;text-anchor:start"
         inkscape:connector-curvature="0"
         id="path1626" />
      <path
         d="m 1074.9195,141.65668 q 1.6702,0.59264 3.2326,2.53221 1.1045,1.40079 3.1518,5.3338 l 5.6301,10.99087 h -2.8824 l -5.7378,-11.04475 q -2.2359,-4.33708 -4.2833,-5.73788 -2.1011,-1.40079 -5.684,-1.40079 h -7.3003 v 18.18342 h -2.6938 v -40.21904 h 10.91 q 6.1689,0 9.213,2.88241 3.044,2.88241 3.044,8.70111 0,3.74443 -1.5893,6.30358 -1.5086,2.50527 -5.0106,3.47506 z m -13.8733,-19.15321 v 17.59078 h 8.8897 q 4.3102,0 6.5191,-2.23589 2.209,-2.23589 2.209,-6.59991 0,-4.33708 -2.209,-6.54603 -2.2089,-2.20895 -6.5191,-2.20895 z"
         style="font-style:normal;font-variant:normal;font-weight:200;font-stretch:normal;font-size:55.1698494px;font-family:'DejaVu Sans';-inkscape-font-specification:'DejaVu Sans, Ultra-Light';font-variant-ligatures:normal;font-variant-caps:normal;font-variant-numeric:normal;font-feature-settings:normal;text-align:start;writing-mode:lr-tb;direction:ltr;text-anchor:start"
         inkscape:connector-curvature="0"
         id="path1628" />
      <path
         d="M 1124.109,157.09238 V 143.0036 h -10.2635 v -2.20895 h 12.9305 v 17.59077 q -2.8825,1.42774 -6.3306,2.12814 -3.4481,0.72734 -7.3811,0.78121 -8.728,0 -13.6308,-5.52237 -4.9298,-5.49543 -4.9298,-15.32795 0,-9.85946 4.9298,-15.38183 4.9028,-5.49543 13.6308,-5.49543 3.6098,0 6.8154,0.72733 3.2326,0.78122 5.9265,2.28977 v 2.61302 q -2.7208,-1.50855 -5.8187,-2.28976 -3.071,-0.75428 -6.4652,-0.75428 -8.1085,0 -12.1762,4.60647 -4.0677,4.57953 -4.0677,13.68471 0,9.23987 4.0677,13.90021 4.0677,4.68729 12.1762,4.68729 3.3134,0 5.9264,-0.45796 2.5861,-0.48489 4.6603,-1.48161 z"
         style="font-style:normal;font-variant:normal;font-weight:200;font-stretch:normal;font-size:55.1698494px;font-family:'DejaVu Sans';-inkscape-font-specification:'DejaVu Sans, Ultra-Light';font-variant-ligatures:normal;font-variant-caps:normal;font-variant-numeric:normal;font-feature-settings:normal;text-align:start;writing-mode:lr-tb;direction:ltr;text-anchor:start"
         inkscape:connector-curvature="0"
         id="path1630" />
    </g>
  </g>
</svg>
